<svg width="12" height="15" viewBox="0 0 12 15" fill="none" xmlns="http://www.w3.org/2000/svg">
<g clip-path="url(#clip0_88_7)">
<path d="M1.06591 2.78724C1.00481 1.44939 2.59392 0.708371 3.5795 1.61513L10.5152 7.99674C11.4318 8.84032 10.9816 10.3878 9.7403 10.6122C9.0166 10.743 8.31739 10.8739 7.76842 10.9865C7.49441 11.0427 7.25385 11.0952 7.06473 11.1412C6.89472 11.1825 6.71685 11.2301 6.60475 11.2824C6.49181 11.3351 6.33756 11.4434 6.19199 11.5503C6.03017 11.6691 5.82783 11.8244 5.60071 12.0038C5.14594 12.363 4.57669 12.8279 3.99351 13.3103C3.02392 14.1124 1.55408 13.4627 1.49716 12.2202L1.06591 2.78724Z" fill="black" stroke="white"/>
</g>
<defs>
<clipPath id="clip0_88_7">
<rect width="12" height="15" fill="white"/>
</clipPath>
</defs>
</svg>
