<svg width="1024" height="1024" viewBox="0 0 1024 1024" fill="none" xmlns="http://www.w3.org/2000/svg">
<path d="M496 303.916V451.092L373 328.584V181.408L496 303.916Z" stroke="white" stroke-width="2"/>
<path d="M528 708.584V561.408L651 683.916V831.092L528 708.584Z" stroke="white" stroke-width="2"/>
<path d="M336.916 535H484.092L361.584 658H214.408L336.916 535Z" stroke="white" stroke-width="2"/>
<path d="M686.584 496H539.408L661.916 373H809.092L686.584 496Z" stroke="white" stroke-width="2"/>
<path d="M528 303.916V451.092L651 328.584V181.408L528 303.916Z" fill="white" stroke="white" stroke-width="2"/>
<path d="M496 708.584V561.408L373 683.916V831.092L496 708.584Z" fill="white" stroke="white" stroke-width="2"/>
<path d="M686.584 528H539.408L661.916 651H809.092L686.584 528Z" fill="white" stroke="white" stroke-width="2"/>
<path d="M336.916 496H484.092L361.584 373H214.408L336.916 496Z" fill="white" stroke="white" stroke-width="2"/>
<path d="M180.792 373L316.613 511H219.709L83.3945 373H180.792Z" fill="white" stroke="white" stroke-width="2"/>
<path d="M146.066 343.353L341.089 341.801L271.576 272.288L76.1995 273.487L146.066 343.353Z" fill="white" stroke="white"/>
<path d="M680.933 146.066L682.485 341.089L751.999 271.576L750.799 76.1995L680.933 146.066Z" fill="white" stroke="white"/>
<path d="M877.221 680.933L682.197 682.485L751.71 751.999L947.087 750.799L877.221 680.933Z" fill="white" stroke="white"/>
<path d="M343.354 878.22L341.801 683.197L272.288 752.71L273.487 948.086L343.354 878.22Z" fill="white" stroke="white"/>
<path d="M271.933 271.221L273.485 76.1974L342.999 145.711L341.799 341.087L271.933 271.221Z" fill="white" stroke="white"/>
<path d="M753.066 271.933L948.089 273.485L878.576 342.998L683.2 341.799L753.066 271.933Z" fill="white" stroke="white"/>
<path d="M751.354 753.066L749.801 948.089L680.288 878.576L681.487 683.2L751.354 753.066Z" fill="white" stroke="white"/>
<path d="M271.221 752.353L76.1972 750.801L145.71 681.288L341.087 682.487L271.221 752.353Z" fill="white" stroke="white"/>
<path d="M373 863.208L511 727.387V824.291L373 960.605V863.208Z" fill="white" stroke="white" stroke-width="2"/>
<path d="M843.208 651L707.387 513H804.291L940.605 651H843.208Z" fill="white" stroke="white" stroke-width="2"/>
<path d="M651 147.792L513 283.613V186.709L651 50.3945V147.792Z" fill="white" stroke="white" stroke-width="2"/>
<path d="M180.792 651L316.613 513H219.709L83.3945 651H180.792Z" fill="white" stroke="white" stroke-width="2"/>
<path d="M651 863.208L513 727.387V824.291L651 960.605V863.208Z" fill="white" stroke="white" stroke-width="2"/>
<path d="M843.208 373L707.387 511H804.291L940.605 373H843.208Z" fill="white" stroke="white" stroke-width="2"/>
<path d="M373 147.792L511 283.613V186.709L373 50.3945V147.792Z" fill="white" stroke="white" stroke-width="2"/>
</svg>
